# xmcd
#
# Track frame offsets:
#	183
#	10928
#	23878
#	33825
#	44745
#	57853
#	69750
#	82090
#	93710
#	106260
#	119450
#	130960
#	145010
#	157563
#	169290
#	180123
#	190075
#	200850
#	212760
#	224258
#	238088
#	249050
#	259648
#	273163
#
# Disc length: 3812 seconds
# Revision: 4
# Processed by: cddbd v1.5.2PL0 Copyright (c) Steve Scherf et al.
# Submitted via: dBpowerAMP V12.0
#
DISCID=490ee218
DTITLE=Various Artist - Sun Country Music Originals, Vol.2
DYEAR=1987
DGENRE=Country
TTITLE0=The Miller Sisters - Someday You Will Pay
TTITLE1=The Miller Sisters - You Didn't Think I Would
TTITLE2=Johnny Cash - Hey Porter
TTITLE3=Johnny Cash - Cry Cry Cry
TTITLE4=Carl Perkins - Let The Jukebox Keep On Playing
TTITLE5=Carl Perkins - Gone Gone Gone
TTITLE6=Slim Rhodes - The House Of Sin
TTITLE7=Slim Rhodes - Are You Ashamed of Me
TTITLE8=Maggie Sue Wimberly - How Long
TTITLE9=Maggie Sue Wimberly - Daydreams Come True
TTITLE10=Charlie Feathers - Defrost Your Heart
TTITLE11=Charlie Feathers - Wedding Gown Of White
TTITLE12=Johnny Cash - Folsom Prison Blues
TTITLE13=Johnny Cash - So Doggone Lonesome
TTITLE14=Jimmy Haggett - No More
TTITLE15=Jimmy Haggett - They Call Our Love A Sin
TTITLE16=The Miller Sisters - There's No Right Way To Do Me Wrong
TTITLE17=The Miller Sisters - You Can Tell Me
TTITLE18=Carl Perkins - Sure To Fall
TTITLE19=Carl Perkins - Tennessee
TTITLE20=Slim Rhodes - Bad Girl
TTITLE21=Slim Rhodes - Gonna Romp And Stomp
TTITLE22=Warren Smith - I'd Rather Be Safe Than Sorry
TTITLE23=Warren Smith - Rock'N'Roll Ruby
EXTD=
EXTT0=
EXTT1=
EXTT2=
EXTT3=
EXTT4=
EXTT5=
EXTT6=
EXTT7=
EXTT8=
EXTT9=
EXTT10=
EXTT11=
EXTT12=
EXTT13=
EXTT14=
EXTT15=
EXTT16=
EXTT17=
EXTT18=
EXTT19=
EXTT20=
EXTT21=
EXTT22=
EXTT23=
PLAYORDER=
